<svg t="1592797278873" class="icon" viewBox="0 0 1024 1024" version="1.1" xmlns="http://www.w3.org/2000/svg" p-id="9923" width="128" height="128"><path d="M512 992C246.912 992 32 777.088 32 512 32 246.912 246.912 32 512 32c265.088 0 480 214.912 480 480 0 265.088-214.912 480-480 480z m0-64c229.76 0 416-186.24 416-416S741.76 96 512 96 96 282.24 96 512s186.24 416 416 416z" p-id="9924"></path><path d="M256 544a32 32 0 0 1 0-64h512a32 32 0 0 1 0 64H256z" p-id="9925"></path><path d="M480 256a32 32 0 0 1 64 0v512a32 32 0 0 1-64 0V256z" p-id="9926"></path></svg>