<?xml version="1.0" standalone="no"?><!DOCTYPE svg PUBLIC "-//W3C//DTD SVG 1.1//EN" "http://www.w3.org/Graphics/SVG/1.1/DTD/svg11.dtd"><svg t="1592376958024" class="icon" viewBox="0 0 1024 1024" version="1.1" xmlns="http://www.w3.org/2000/svg" p-id="2109" xmlns:xlink="http://www.w3.org/1999/xlink" width="64" height="64"><defs><style type="text/css"></style></defs><path d="M676.352 400.384c9.8304 0 19.456 0.4608 29.184 1.3824C683.52 261.5808 546.1504 153.6 379.904 153.6 198.4 153.6 51.2 282.5216 51.2 441.4464c0 88.8832 46.08 168.3456 118.272 221.2352-9.216 46.2336-20.6848 107.008-18.9952 104.96 2.5088-0.8704 66.048-36.1984 105.984-59.2896 38.0928 13.4656 79.7696 20.992 123.4944 20.992 4.608 0 9.0624-0.1024 13.6704-0.2048a245.3504 245.3504 0 0 1-7.68-61.44c-0.1024-147.6096 129.9456-267.264 290.4064-267.264zM509.0304 306.432a41.1648 41.1648 0 0 1 0 82.2272 41.1136 41.1136 0 1 1 0-82.2272zM256.6144 388.608a41.1136 41.1136 0 1 1 0.2048-82.2272 41.1136 41.1136 0 0 1-0.1536 82.2272zM972.8 658.7904c0-133.0176-126.1056-240.7936-281.7024-240.7936-155.648 0-281.8048 107.8784-281.8048 240.7936 0 133.0176 126.1568 240.9984 281.8048 240.9984 42.3424 0 82.432-8.0896 118.5792-22.4256 37.12 19.8656 77.6192 40.7552 79.6672 41.3696 1.3824 1.536-6.6048-37.376-15.2576-76.6464C934.4 797.7472 972.8 732.2112 972.8 658.7904z m-387.3792-52.8384a41.1136 41.1136 0 1 1-0.1024-82.2272 41.1136 41.1136 0 0 1 0.1024 82.2272z m205.3632 0a41.1648 41.1648 0 1 1 0-82.2784 41.1648 41.1648 0 0 1 0 82.2784z" fill="#19AD19" p-id="2110"></path></svg>